<svg width="22" height="23" viewBox="0 0 22 23" fill="none" xmlns="http://www.w3.org/2000/svg">
<mask id="path-1-inside-1_10_170" fill="white">
<path d="M0 12C0 9.79086 1.79086 8 4 8H18C20.2091 8 22 9.79086 22 12V19C22 21.2091 20.2091 23 18 23H4C1.79086 23 0 21.2091 0 19V12Z"/>
</mask>
<path d="M4 10H18V6H4V10ZM20 12V19H24V12H20ZM18 21H4V25H18V21ZM2 19V12H-2V19H2ZM4 21C2.89543 21 2 20.1046 2 19H-2C-2 22.3137 0.686292 25 4 25V21ZM20 19C20 20.1046 19.1046 21 18 21V25C21.3137 25 24 22.3137 24 19H20ZM18 10C19.1046 10 20 10.8954 20 12H24C24 8.68629 21.3137 6 18 6V10ZM4 6C0.686292 6 -2 8.68629 -2 12H2C2 10.8954 2.89543 10 4 10V6Z" fill="#3256B2" mask="url(#path-1-inside-1_10_170)"/>
<path d="M6.99613 9.78877L7.00153 7.991L15.2472 8.01575L15.2418 9.81352L6.99613 9.78877Z" fill="white" stroke="white"/>
<path d="M7 5L10.5959 1.17789C10.8191 0.940703 11.1809 0.940703 11.4041 1.17789L15 5" stroke="#3256B2" stroke-width="2" stroke-linecap="round" stroke-linejoin="round"/>
<path d="M11 3V17" stroke="#3256B2" stroke-width="2" stroke-linecap="round" stroke-linejoin="round"/>
</svg>
